o 
v -0.12999999523162842 0.29677256880529296 0.014999883712709959
v -0.10999999940395355 0.29677256880529296 0.014999883712709959
v -0.10999999940395355 0.016774732050850727 0.016100828945103805
v -0.12999999523162842 0.29677256880529296 0.014999883712709959
v -0.10999999940395355 0.016774732050850727 0.016100828945103805
v -0.12999999523162842 0.016774732050850727 0.016100828945103805
v -0.12999999523162842 0.29665461039067526 -0.014999883712709959
v -0.12999999523162842 0.016656773636233024 -0.013898938480316115
v -0.10999999940395355 0.016656773636233024 -0.013898938480316115
v -0.12999999523162842 0.29665461039067526 -0.014999883712709959
v -0.10999999940395355 0.016656773636233024 -0.013898938480316115
v -0.10999999940395355 0.29665461039067526 -0.014999883712709959
v -0.12999999523162842 0.29677256880529296 0.014999883712709959
v -0.12999999523162842 0.29665461039067526 -0.014999883712709959
v -0.10999999940395355 0.29665461039067526 -0.014999883712709959
v -0.12999999523162842 0.29677256880529296 0.014999883712709959
v -0.10999999940395355 0.29665461039067526 -0.014999883712709959
v -0.10999999940395355 0.29677256880529296 0.014999883712709959
v -0.10999999940395355 0.016774732050850727 0.016100828945103805
v -0.10999999940395355 0.016656773636233024 -0.013898938480316115
v -0.12999999523162842 0.016656773636233024 -0.013898938480316115
v -0.10999999940395355 0.016774732050850727 0.016100828945103805
v -0.12999999523162842 0.016656773636233024 -0.013898938480316115
v -0.12999999523162842 0.016774732050850727 0.016100828945103805
v -0.10999999940395355 0.29677256880529296 0.014999883712709959
v -0.10999999940395355 0.29665461039067526 -0.014999883712709959
v -0.10999999940395355 0.016656773636233024 -0.013898938480316115
v -0.10999999940395355 0.29677256880529296 0.014999883712709959
v -0.10999999940395355 0.016656773636233024 -0.013898938480316115
v -0.10999999940395355 0.016774732050850727 0.016100828945103805
v -0.12999999523162842 0.016774732050850727 0.016100828945103805
v -0.12999999523162842 0.016656773636233024 -0.013898938480316115
v -0.12999999523162842 0.29665461039067526 -0.014999883712709959
v -0.12999999523162842 0.016774732050850727 0.016100828945103805
v -0.12999999523162842 0.29665461039067526 -0.014999883712709959
v -0.12999999523162842 0.29677256880529296 0.014999883712709959
v 0.10999999940395355 0.29677256880529296 0.014999883712709959
v 0.12999999523162842 0.29677256880529296 0.014999883712709959
v 0.12999999523162842 0.016774732050850727 0.016100828945103805
v 0.10999999940395355 0.29677256880529296 0.014999883712709959
v 0.12999999523162842 0.016774732050850727 0.016100828945103805
v 0.10999999940395355 0.016774732050850727 0.016100828945103805
v 0.10999999940395355 0.29665461039067526 -0.014999883712709959
v 0.10999999940395355 0.016656773636233024 -0.013898938480316115
v 0.12999999523162842 0.016656773636233024 -0.013898938480316115
v 0.10999999940395355 0.29665461039067526 -0.014999883712709959
v 0.12999999523162842 0.016656773636233024 -0.013898938480316115
v 0.12999999523162842 0.29665461039067526 -0.014999883712709959
v 0.10999999940395355 0.29677256880529296 0.014999883712709959
v 0.10999999940395355 0.29665461039067526 -0.014999883712709959
v 0.12999999523162842 0.29665461039067526 -0.014999883712709959
v 0.10999999940395355 0.29677256880529296 0.014999883712709959
v 0.12999999523162842 0.29665461039067526 -0.014999883712709959
v 0.12999999523162842 0.29677256880529296 0.014999883712709959
v 0.12999999523162842 0.016774732050850727 0.016100828945103805
v 0.12999999523162842 0.016656773636233024 -0.013898938480316115
v 0.10999999940395355 0.016656773636233024 -0.013898938480316115
v 0.12999999523162842 0.016774732050850727 0.016100828945103805
v 0.10999999940395355 0.016656773636233024 -0.013898938480316115
v 0.10999999940395355 0.016774732050850727 0.016100828945103805
v 0.12999999523162842 0.29677256880529296 0.014999883712709959
v 0.12999999523162842 0.29665461039067526 -0.014999883712709959
v 0.12999999523162842 0.016656773636233024 -0.013898938480316115
v 0.12999999523162842 0.29677256880529296 0.014999883712709959
v 0.12999999523162842 0.016656773636233024 -0.013898938480316115
v 0.12999999523162842 0.016774732050850727 0.016100828945103805
v 0.10999999940395355 0.016774732050850727 0.016100828945103805
v 0.10999999940395355 0.016656773636233024 -0.013898938480316115
v 0.10999999940395355 0.29665461039067526 -0.014999883712709959
v 0.10999999940395355 0.016774732050850727 0.016100828945103805
v 0.10999999940395355 0.29665461039067526 -0.014999883712709959
v 0.10999999940395355 0.29677256880529296 0.014999883712709959
v -0.12999999523162842 0.0267746452128369 0.01606150951018368
v 0.12999999523162842 0.0267746452128369 0.01606150951018368
v 0.12999999523162842 0.006774818888864498 0.016140148380023926
v -0.12999999523162842 0.0267746452128369 0.01606150951018368
v 0.12999999523162842 0.006774818888864498 0.016140148380023926
v -0.12999999523162842 0.006774818888864498 0.016140148380023926
v -0.12999999523162842 0.026656686798219198 -0.013938257915236237
v -0.12999999523162842 0.006656860474246795 -0.013859619045395993
v 0.12999999523162842 0.006656860474246795 -0.013859619045395993
v -0.12999999523162842 0.026656686798219198 -0.013938257915236237
v 0.12999999523162842 0.006656860474246795 -0.013859619045395993
v 0.12999999523162842 0.026656686798219198 -0.013938257915236237
v -0.12999999523162842 0.0267746452128369 0.01606150951018368
v -0.12999999523162842 0.026656686798219198 -0.013938257915236237
v 0.12999999523162842 0.026656686798219198 -0.013938257915236237
v -0.12999999523162842 0.0267746452128369 0.01606150951018368
v 0.12999999523162842 0.026656686798219198 -0.013938257915236237
v 0.12999999523162842 0.0267746452128369 0.01606150951018368
v 0.12999999523162842 0.006774818888864498 0.016140148380023926
v 0.12999999523162842 0.006656860474246795 -0.013859619045395993
v -0.12999999523162842 0.006656860474246795 -0.013859619045395993
v 0.12999999523162842 0.006774818888864498 0.016140148380023926
v -0.12999999523162842 0.006656860474246795 -0.013859619045395993
v -0.12999999523162842 0.006774818888864498 0.016140148380023926
v 0.12999999523162842 0.0267746452128369 0.01606150951018368
v 0.12999999523162842 0.026656686798219198 -0.013938257915236237
v 0.12999999523162842 0.006656860474246795 -0.013859619045395993
v 0.12999999523162842 0.0267746452128369 0.01606150951018368
v 0.12999999523162842 0.006656860474246795 -0.013859619045395993
v 0.12999999523162842 0.006774818888864498 0.016140148380023926
v -0.12999999523162842 0.006774818888864498 0.016140148380023926
v -0.12999999523162842 0.006656860474246795 -0.013859619045395993
v -0.12999999523162842 0.026656686798219198 -0.013938257915236237
v -0.12999999523162842 0.006774818888864498 0.016140148380023926
v -0.12999999523162842 0.026656686798219198 -0.013938257915236237
v -0.12999999523162842 0.0267746452128369 0.01606150951018368
v -0.18199999630451202 0.10071510983029294 0.0007706616392394593
v -0.18434299528598785 0.10069286680474004 -0.0048862946329099564
v -0.18434299528598785 0.0006936308775558064 -0.00449309987357468
v -0.18199999630451202 0.10071510983029294 0.0007706616392394593
v -0.18434299528598785 0.0006936308775558064 -0.00449309987357468
v -0.18199999630451202 0.0007158739031086769 0.001163856398574735
v -0.1899999976158142 0.10071510983029294 0.0007706616392394593
v -0.18434299528598785 0.10069286680474004 -0.0048862946329099564
v -0.18199999630451202 0.10071510983029294 0.0007706616392394593
v -0.1899999976158142 0.0007158739031086769 0.001163856398574735
v -0.18199999630451202 0.0007158739031086769 0.001163856398574735
v -0.18434299528598785 0.0006936308775558064 -0.00449309987357468
v -0.18434299528598785 0.10069286680474004 -0.0048862946329099564
v -0.1899999976158142 0.1006836542508644 -0.007229276899661744
v -0.1899999976158142 0.0006844183236801582 -0.006836082140326468
v -0.18434299528598785 0.10069286680474004 -0.0048862946329099564
v -0.1899999976158142 0.0006844183236801582 -0.006836082140326468
v -0.18434299528598785 0.0006936308775558064 -0.00449309987357468
v -0.1899999976158142 0.10071510983029294 0.0007706616392394593
v -0.1899999976158142 0.1006836542508644 -0.007229276899661744
v -0.18434299528598785 0.10069286680474004 -0.0048862946329099564
v -0.1899999976158142 0.0007158739031086769 0.001163856398574735
v -0.18434299528598785 0.0006936308775558064 -0.00449309987357468
v -0.1899999976158142 0.0006844183236801582 -0.006836082140326468
v -0.1899999976158142 0.1006836542508644 -0.007229276899661744
v -0.19565699994564056 0.10069286680474004 -0.0048862946329099564
v -0.19565699994564056 0.0006936308775558064 -0.00449309987357468
v -0.1899999976158142 0.1006836542508644 -0.007229276899661744
v -0.19565699994564056 0.0006936308775558064 -0.00449309987357468
v -0.1899999976158142 0.0006844183236801582 -0.006836082140326468
v -0.1899999976158142 0.10071510983029294 0.0007706616392394593
v -0.19565699994564056 0.10069286680474004 -0.0048862946329099564
v -0.1899999976158142 0.1006836542508644 -0.007229276899661744
v -0.1899999976158142 0.0007158739031086769 0.001163856398574735
v -0.1899999976158142 0.0006844183236801582 -0.006836082140326468
v -0.19565699994564056 0.0006936308775558064 -0.00449309987357468
v -0.19565699994564056 0.10069286680474004 -0.0048862946329099564
v -0.1979999989271164 0.10071510983029294 0.0007706616392394593
v -0.1979999989271164 0.0007158739031086769 0.001163856398574735
v -0.19565699994564056 0.10069286680474004 -0.0048862946329099564
v -0.1979999989271164 0.0007158739031086769 0.001163856398574735
v -0.19565699994564056 0.0006936308775558064 -0.00449309987357468
v -0.1899999976158142 0.10071510983029294 0.0007706616392394593
v -0.1979999989271164 0.10071510983029294 0.0007706616392394593
v -0.19565699994564056 0.10069286680474004 -0.0048862946329099564
v -0.1899999976158142 0.0007158739031086769 0.001163856398574735
v -0.19565699994564056 0.0006936308775558064 -0.00449309987357468
v -0.1979999989271164 0.0007158739031086769 0.001163856398574735
v -0.1979999989271164 0.10071510983029294 0.0007706616392394593
v -0.19565699994564056 0.10073735285584584 0.006427617911388874
v -0.19565699994564056 0.0007381169286615474 0.006820812670724151
v -0.1979999989271164 0.10071510983029294 0.0007706616392394593
v -0.19565699994564056 0.0007381169286615474 0.006820812670724151
v -0.1979999989271164 0.0007158739031086769 0.001163856398574735
v -0.1899999976158142 0.10071510983029294 0.0007706616392394593
v -0.19565699994564056 0.10073735285584584 0.006427617911388874
v -0.1979999989271164 0.10071510983029294 0.0007706616392394593
v -0.1899999976158142 0.0007158739031086769 0.001163856398574735
v -0.1979999989271164 0.0007158739031086769 0.001163856398574735
v -0.19565699994564056 0.0007381169286615474 0.006820812670724151
v -0.19565699994564056 0.10073735285584584 0.006427617911388874
v -0.1899999976158142 0.10074656540972149 0.008770600178140662
v -0.1899999976158142 0.0007473294825371957 0.009163794937475938
v -0.19565699994564056 0.10073735285584584 0.006427617911388874
v -0.1899999976158142 0.0007473294825371957 0.009163794937475938
v -0.19565699994564056 0.0007381169286615474 0.006820812670724151
v -0.1899999976158142 0.10071510983029294 0.0007706616392394593
v -0.1899999976158142 0.10074656540972149 0.008770600178140662
v -0.19565699994564056 0.10073735285584584 0.006427617911388874
v -0.1899999976158142 0.0007158739031086769 0.001163856398574735
v -0.19565699994564056 0.0007381169286615474 0.006820812670724151
v -0.1899999976158142 0.0007473294825371957 0.009163794937475938
v -0.1899999976158142 0.10074656540972149 0.008770600178140662
v -0.18434299528598785 0.10073735285584584 0.006427617911388874
v -0.18434299528598785 0.0007381169286615474 0.006820812670724151
v -0.1899999976158142 0.10074656540972149 0.008770600178140662
v -0.18434299528598785 0.0007381169286615474 0.006820812670724151
v -0.1899999976158142 0.0007473294825371957 0.009163794937475938
v -0.1899999976158142 0.10071510983029294 0.0007706616392394593
v -0.18434299528598785 0.10073735285584584 0.006427617911388874
v -0.1899999976158142 0.10074656540972149 0.008770600178140662
v -0.1899999976158142 0.0007158739031086769 0.001163856398574735
v -0.1899999976158142 0.0007473294825371957 0.009163794937475938
v -0.18434299528598785 0.0007381169286615474 0.006820812670724151
v -0.18434299528598785 0.10073735285584584 0.006427617911388874
v -0.18199999630451202 0.10071510983029294 0.0007706616392394593
v -0.18199999630451202 0.0007158739031086769 0.001163856398574735
v -0.18434299528598785 0.10073735285584584 0.006427617911388874
v -0.18199999630451202 0.0007158739031086769 0.001163856398574735
v -0.18434299528598785 0.0007381169286615474 0.006820812670724151
v -0.1899999976158142 0.10071510983029294 0.0007706616392394593
v -0.18199999630451202 0.10071510983029294 0.0007706616392394593
v -0.18434299528598785 0.10073735285584584 0.006427617911388874
v -0.1899999976158142 0.0007158739031086769 0.001163856398574735
v -0.18434299528598785 0.0007381169286615474 0.006820812670724151
v -0.18199999630451202 0.0007158739031086769 0.001163856398574735
v 0.1979999989271164 0.10071510983029294 0.0007706616392394593
v 0.19565699994564056 0.10069286680474004 -0.0048862946329099564
v 0.19565699994564056 0.0006936308775558064 -0.00449309987357468
v 0.1979999989271164 0.10071510983029294 0.0007706616392394593
v 0.19565699994564056 0.0006936308775558064 -0.00449309987357468
v 0.1979999989271164 0.0007158739031086769 0.001163856398574735
v 0.1899999976158142 0.10071510983029294 0.0007706616392394593
v 0.19565699994564056 0.10069286680474004 -0.0048862946329099564
v 0.1979999989271164 0.10071510983029294 0.0007706616392394593
v 0.1899999976158142 0.0007158739031086769 0.001163856398574735
v 0.1979999989271164 0.0007158739031086769 0.001163856398574735
v 0.19565699994564056 0.0006936308775558064 -0.00449309987357468
v 0.19565699994564056 0.10069286680474004 -0.0048862946329099564
v 0.1899999976158142 0.1006836542508644 -0.007229276899661744
v 0.1899999976158142 0.0006844183236801582 -0.006836082140326468
v 0.19565699994564056 0.10069286680474004 -0.0048862946329099564
v 0.1899999976158142 0.0006844183236801582 -0.006836082140326468
v 0.19565699994564056 0.0006936308775558064 -0.00449309987357468
v 0.1899999976158142 0.10071510983029294 0.0007706616392394593
v 0.1899999976158142 0.1006836542508644 -0.007229276899661744
v 0.19565699994564056 0.10069286680474004 -0.0048862946329099564
v 0.1899999976158142 0.0007158739031086769 0.001163856398574735
v 0.19565699994564056 0.0006936308775558064 -0.00449309987357468
v 0.1899999976158142 0.0006844183236801582 -0.006836082140326468
v 0.1899999976158142 0.1006836542508644 -0.007229276899661744
v 0.18434299528598785 0.10069286680474004 -0.0048862946329099564
v 0.18434299528598785 0.0006936308775558064 -0.00449309987357468
v 0.1899999976158142 0.1006836542508644 -0.007229276899661744
v 0.18434299528598785 0.0006936308775558064 -0.00449309987357468
v 0.1899999976158142 0.0006844183236801582 -0.006836082140326468
v 0.1899999976158142 0.10071510983029294 0.0007706616392394593
v 0.18434299528598785 0.10069286680474004 -0.0048862946329099564
v 0.1899999976158142 0.1006836542508644 -0.007229276899661744
v 0.1899999976158142 0.0007158739031086769 0.001163856398574735
v 0.1899999976158142 0.0006844183236801582 -0.006836082140326468
v 0.18434299528598785 0.0006936308775558064 -0.00449309987357468
v 0.18434299528598785 0.10069286680474004 -0.0048862946329099564
v 0.18199999630451202 0.10071510983029294 0.0007706616392394593
v 0.18199999630451202 0.0007158739031086769 0.001163856398574735
v 0.18434299528598785 0.10069286680474004 -0.0048862946329099564
v 0.18199999630451202 0.0007158739031086769 0.001163856398574735
v 0.18434299528598785 0.0006936308775558064 -0.00449309987357468
v 0.1899999976158142 0.10071510983029294 0.0007706616392394593
v 0.18199999630451202 0.10071510983029294 0.0007706616392394593
v 0.18434299528598785 0.10069286680474004 -0.0048862946329099564
v 0.1899999976158142 0.0007158739031086769 0.001163856398574735
v 0.18434299528598785 0.0006936308775558064 -0.00449309987357468
v 0.18199999630451202 0.0007158739031086769 0.001163856398574735
v 0.18199999630451202 0.10071510983029294 0.0007706616392394593
v 0.18434299528598785 0.10073735285584584 0.006427617911388874
v 0.18434299528598785 0.0007381169286615474 0.006820812670724151
v 0.18199999630451202 0.10071510983029294 0.0007706616392394593
v 0.18434299528598785 0.0007381169286615474 0.006820812670724151
v 0.18199999630451202 0.0007158739031086769 0.001163856398574735
v 0.1899999976158142 0.10071510983029294 0.0007706616392394593
v 0.18434299528598785 0.10073735285584584 0.006427617911388874
v 0.18199999630451202 0.10071510983029294 0.0007706616392394593
v 0.1899999976158142 0.0007158739031086769 0.001163856398574735
v 0.18199999630451202 0.0007158739031086769 0.001163856398574735
v 0.18434299528598785 0.0007381169286615474 0.006820812670724151
v 0.18434299528598785 0.10073735285584584 0.006427617911388874
v 0.1899999976158142 0.10074656540972149 0.008770600178140662
v 0.1899999976158142 0.0007473294825371957 0.009163794937475938
v 0.18434299528598785 0.10073735285584584 0.006427617911388874
v 0.1899999976158142 0.0007473294825371957 0.009163794937475938
v 0.18434299528598785 0.0007381169286615474 0.006820812670724151
v 0.1899999976158142 0.10071510983029294 0.0007706616392394593
v 0.1899999976158142 0.10074656540972149 0.008770600178140662
v 0.18434299528598785 0.10073735285584584 0.006427617911388874
v 0.1899999976158142 0.0007158739031086769 0.001163856398574735
v 0.18434299528598785 0.0007381169286615474 0.006820812670724151
v 0.1899999976158142 0.0007473294825371957 0.009163794937475938
v 0.1899999976158142 0.10074656540972149 0.008770600178140662
v 0.19565699994564056 0.10073735285584584 0.006427617911388874
v 0.19565699994564056 0.0007381169286615474 0.006820812670724151
v 0.1899999976158142 0.10074656540972149 0.008770600178140662
v 0.19565699994564056 0.0007381169286615474 0.006820812670724151
v 0.1899999976158142 0.0007473294825371957 0.009163794937475938
v 0.1899999976158142 0.10071510983029294 0.0007706616392394593
v 0.19565699994564056 0.10073735285584584 0.006427617911388874
v 0.1899999976158142 0.10074656540972149 0.008770600178140662
v 0.1899999976158142 0.0007158739031086769 0.001163856398574735
v 0.1899999976158142 0.0007473294825371957 0.009163794937475938
v 0.19565699994564056 0.0007381169286615474 0.006820812670724151
v 0.19565699994564056 0.10073735285584584 0.006427617911388874
v 0.1979999989271164 0.10071510983029294 0.0007706616392394593
v 0.1979999989271164 0.0007158739031086769 0.001163856398574735
v 0.19565699994564056 0.10073735285584584 0.006427617911388874
v 0.1979999989271164 0.0007158739031086769 0.001163856398574735
v 0.19565699994564056 0.0007381169286615474 0.006820812670724151
v 0.1899999976158142 0.10071510983029294 0.0007706616392394593
v 0.1979999989271164 0.10071510983029294 0.0007706616392394593
v 0.19565699994564056 0.10073735285584584 0.006427617911388874
v 0.1899999976158142 0.0007158739031086769 0.001163856398574735
v 0.19565699994564056 0.0007381169286615474 0.006820812670724151
v 0.1979999989271164 0.0007158739031086769 0.001163856398574735
vn 0 -0.003931947241809279 -0.9999922698655663
vn 0 -0.003931947241809279 -0.9999922698655663
vn 0 -0.003931947241809279 -0.9999922698655663
vn 0 -0.003931947241809279 -0.9999922698655663
vn 0 -0.003931947241809279 -0.9999922698655663
vn 0 -0.003931947241809279 -0.9999922698655663
vn 0 0.003931947241809279 0.9999922698655663
vn 0 0.003931947241809279 0.9999922698655663
vn 0 0.003931947241809279 0.9999922698655663
vn 0 0.003931947241809279 0.9999922698655663
vn 0 0.003931947241809279 0.9999922698655663
vn 0 0.003931947241809279 0.9999922698655663
vn 0 -0.9999922698655663 0.003931947241809279
vn 0 -0.9999922698655663 0.003931947241809279
vn 0 -0.9999922698655663 0.003931947241809279
vn 0 -0.9999922698655663 0.003931947241809279
vn 0 -0.9999922698655663 0.003931947241809279
vn 0 -0.9999922698655663 0.003931947241809279
vn 0 0.9999922698655663 -0.003931947241809279
vn 0 0.9999922698655663 -0.003931947241809279
vn 0 0.9999922698655663 -0.003931947241809279
vn 0 0.9999922698655663 -0.003931947241809279
vn 0 0.9999922698655663 -0.003931947241809279
vn 0 0.9999922698655663 -0.003931947241809279
vn -1 0 0
vn -1 0 0
vn -1 0 0
vn -1 0 0
vn -1 0 0
vn -1 0 0
vn 1 0 0
vn 1 0 0
vn 1 0 0
vn 1 0 0
vn 1 0 0
vn 1 0 0
vn 0 -0.003931947241809279 -0.9999922698655663
vn 0 -0.003931947241809279 -0.9999922698655663
vn 0 -0.003931947241809279 -0.9999922698655663
vn 0 -0.003931947241809279 -0.9999922698655663
vn 0 -0.003931947241809279 -0.9999922698655663
vn 0 -0.003931947241809279 -0.9999922698655663
vn 0 0.003931947241809279 0.9999922698655663
vn 0 0.003931947241809279 0.9999922698655663
vn 0 0.003931947241809279 0.9999922698655663
vn 0 0.003931947241809279 0.9999922698655663
vn 0 0.003931947241809279 0.9999922698655663
vn 0 0.003931947241809279 0.9999922698655663
vn 0 -0.9999922698655663 0.003931947241809279
vn 0 -0.9999922698655663 0.003931947241809279
vn 0 -0.9999922698655663 0.003931947241809279
vn 0 -0.9999922698655663 0.003931947241809279
vn 0 -0.9999922698655663 0.003931947241809279
vn 0 -0.9999922698655663 0.003931947241809279
vn 0 0.9999922698655663 -0.003931947241809279
vn 0 0.9999922698655663 -0.003931947241809279
vn 0 0.9999922698655663 -0.003931947241809279
vn 0 0.9999922698655663 -0.003931947241809279
vn 0 0.9999922698655663 -0.003931947241809279
vn 0 0.9999922698655663 -0.003931947241809279
vn -1 0 0
vn -1 0 0
vn -1 0 0
vn -1 0 0
vn -1 0 0
vn -1 0 0
vn 1 0 0
vn 1 0 0
vn 1 0 0
vn 1 0 0
vn 1 0 0
vn 1 0 0
vn 0 -0.003931947241809279 -0.9999922698655663
vn 0 -0.003931947241809279 -0.9999922698655663
vn 0 -0.003931947241809279 -0.9999922698655663
vn 0 -0.003931947241809279 -0.9999922698655663
vn 0 -0.003931947241809279 -0.9999922698655663
vn 0 -0.003931947241809279 -0.9999922698655663
vn 0 0.003931947241809279 0.9999922698655663
vn 0 0.003931947241809279 0.9999922698655663
vn 0 0.003931947241809279 0.9999922698655663
vn 0 0.003931947241809279 0.9999922698655663
vn 0 0.003931947241809279 0.9999922698655663
vn 0 0.003931947241809279 0.9999922698655663
vn 0 -0.9999922698655663 0.003931947241809279
vn 0 -0.9999922698655663 0.003931947241809279
vn 0 -0.9999922698655663 0.003931947241809279
vn 0 -0.9999922698655663 0.003931947241809279
vn 0 -0.9999922698655663 0.003931947241809279
vn 0 -0.9999922698655663 0.003931947241809279
vn 0 0.9999922698655663 -0.003931947241809279
vn 0 0.9999922698655663 -0.003931947241809279
vn 0 0.9999922698655663 -0.003931947241809279
vn 0 0.9999922698655663 -0.003931947241809279
vn 0 0.9999922698655663 -0.003931947241809279
vn 0 0.9999922698655663 -0.003931947241809279
vn -1 0 0
vn -1 0 0
vn -1 0 0
vn -1 0 0
vn -1 0 0
vn -1 0 0
vn 1 0 0
vn 1 0 0
vn 1 0 0
vn 1 0 0
vn 1 0 0
vn 1 0 0
vn -0.9238914332894846 0.001504578092549983 0.38265174210901615
vn -0.9238914332894846 0.001504578092549983 0.38265174210901615
vn -0.9238914332894846 0.001504578092549983 0.38265174210901615
vn -0.9238914332894846 0.001504578092549983 0.38265174210901615
vn -0.9238914332894846 0.001504578092549983 0.38265174210901615
vn -0.9238914332894846 0.001504578092549983 0.38265174210901615
vn 0 -0.9999922698655663 0.003931947241809279
vn 0 -0.9999922698655663 0.003931947241809279
vn 0 -0.9999922698655663 0.003931947241809279
vn 0 0.9999922698655663 -0.003931947241809279
vn 0 0.9999922698655663 -0.003931947241809279
vn 0 0.9999922698655663 -0.003931947241809279
vn -0.38265470008128943 0.0036326923728538106 0.9238842914845032
vn -0.38265470008128943 0.0036326923728538106 0.9238842914845032
vn -0.38265470008128943 0.0036326923728538106 0.9238842914845032
vn -0.38265470008128943 0.0036326923728538106 0.9238842914845032
vn -0.38265470008128943 0.0036326923728538106 0.9238842914845032
vn -0.38265470008128943 0.0036326923728538106 0.9238842914845032
vn 0 -0.9999922698655663 0.003931947241809279
vn 0 -0.9999922698655663 0.003931947241809279
vn 0 -0.9999922698655663 0.003931947241809279
vn 0 0.9999922698655663 -0.003931947241809279
vn 0 0.9999922698655663 -0.003931947241809279
vn 0 0.9999922698655663 -0.003931947241809279
vn 0.38265470008128943 0.0036326923728538106 0.9238842914845032
vn 0.38265470008128943 0.0036326923728538106 0.9238842914845032
vn 0.38265470008128943 0.0036326923728538106 0.9238842914845032
vn 0.38265470008128943 0.0036326923728538106 0.9238842914845032
vn 0.38265470008128943 0.0036326923728538106 0.9238842914845032
vn 0.38265470008128943 0.0036326923728538106 0.9238842914845032
vn 0 -0.9999922698655663 0.003931947241809279
vn 0 -0.9999922698655663 0.003931947241809279
vn 0 -0.9999922698655663 0.003931947241809279
vn 0 0.9999922698655663 -0.003931947241809279
vn 0 0.9999922698655663 -0.003931947241809279
vn 0 0.9999922698655663 -0.003931947241809279
vn 0.9238914332894846 0.001504578092549983 0.38265174210901615
vn 0.9238914332894846 0.001504578092549983 0.38265174210901615
vn 0.9238914332894846 0.001504578092549983 0.38265174210901615
vn 0.9238914332894846 0.001504578092549983 0.38265174210901615
vn 0.9238914332894846 0.001504578092549983 0.38265174210901615
vn 0.9238914332894846 0.001504578092549983 0.38265174210901615
vn 0 -0.9999922698655663 0.003931947241809279
vn 0 -0.9999922698655663 0.003931947241809279
vn 0 -0.9999922698655663 0.003931947241809279
vn 0 0.9999922698655663 -0.003931947241809279
vn 0 0.9999922698655663 -0.003931947241809279
vn 0 0.9999922698655663 -0.003931947241809279
vn 0.9238914332894846 -0.001504578092549983 -0.38265174210901615
vn 0.9238914332894846 -0.001504578092549983 -0.38265174210901615
vn 0.9238914332894846 -0.001504578092549983 -0.38265174210901615
vn 0.9238914332894846 -0.001504578092549983 -0.38265174210901615
vn 0.9238914332894846 -0.001504578092549983 -0.38265174210901615
vn 0.9238914332894846 -0.001504578092549983 -0.38265174210901615
vn 0 -0.9999922698655663 0.003931947241809279
vn 0 -0.9999922698655663 0.003931947241809279
vn 0 -0.9999922698655663 0.003931947241809279
vn 0 0.9999922698655663 -0.003931947241809279
vn 0 0.9999922698655663 -0.003931947241809279
vn 0 0.9999922698655663 -0.003931947241809279
vn 0.38265470008128943 -0.0036326923728538106 -0.9238842914845032
vn 0.38265470008128943 -0.0036326923728538106 -0.9238842914845032
vn 0.38265470008128943 -0.0036326923728538106 -0.9238842914845032
vn 0.38265470008128943 -0.0036326923728538106 -0.9238842914845032
vn 0.38265470008128943 -0.0036326923728538106 -0.9238842914845032
vn 0.38265470008128943 -0.0036326923728538106 -0.9238842914845032
vn 0 -0.9999922698655663 0.003931947241809279
vn 0 -0.9999922698655663 0.003931947241809279
vn 0 -0.9999922698655663 0.003931947241809279
vn 0 0.9999922698655663 -0.003931947241809279
vn 0 0.9999922698655663 -0.003931947241809279
vn 0 0.9999922698655663 -0.003931947241809279
vn -0.38265470008128943 -0.0036326923728538106 -0.9238842914845032
vn -0.38265470008128943 -0.0036326923728538106 -0.9238842914845032
vn -0.38265470008128943 -0.0036326923728538106 -0.9238842914845032
vn -0.38265470008128943 -0.0036326923728538106 -0.9238842914845032
vn -0.38265470008128943 -0.0036326923728538106 -0.9238842914845032
vn -0.38265470008128943 -0.0036326923728538106 -0.9238842914845032
vn 0 -0.9999922698655663 0.003931947241809279
vn 0 -0.9999922698655663 0.003931947241809279
vn 0 -0.9999922698655663 0.003931947241809279
vn 0 0.9999922698655663 -0.003931947241809279
vn 0 0.9999922698655663 -0.003931947241809279
vn 0 0.9999922698655663 -0.003931947241809279
vn -0.9238914332894846 -0.001504578092549983 -0.38265174210901615
vn -0.9238914332894846 -0.001504578092549983 -0.38265174210901615
vn -0.9238914332894846 -0.001504578092549983 -0.38265174210901615
vn -0.9238914332894846 -0.001504578092549983 -0.38265174210901615
vn -0.9238914332894846 -0.001504578092549983 -0.38265174210901615
vn -0.9238914332894846 -0.001504578092549983 -0.38265174210901615
vn 0 -0.9999922698655663 0.003931947241809279
vn 0 -0.9999922698655663 0.003931947241809279
vn 0 -0.9999922698655663 0.003931947241809279
vn 0 0.9999922698655663 -0.003931947241809279
vn 0 0.9999922698655663 -0.003931947241809279
vn 0 0.9999922698655663 -0.003931947241809279
vn -0.9238914332894846 0.001504578092549983 0.38265174210901615
vn -0.9238914332894846 0.001504578092549983 0.38265174210901615
vn -0.9238914332894846 0.001504578092549983 0.38265174210901615
vn -0.9238914332894846 0.001504578092549983 0.38265174210901615
vn -0.9238914332894846 0.001504578092549983 0.38265174210901615
vn -0.9238914332894846 0.001504578092549983 0.38265174210901615
vn 0 -0.9999922698655663 0.003931947241809279
vn 0 -0.9999922698655663 0.003931947241809279
vn 0 -0.9999922698655663 0.003931947241809279
vn 0 0.9999922698655663 -0.003931947241809279
vn 0 0.9999922698655663 -0.003931947241809279
vn 0 0.9999922698655663 -0.003931947241809279
vn -0.38265470008128943 0.0036326923728538106 0.9238842914845032
vn -0.38265470008128943 0.0036326923728538106 0.9238842914845032
vn -0.38265470008128943 0.0036326923728538106 0.9238842914845032
vn -0.38265470008128943 0.0036326923728538106 0.9238842914845032
vn -0.38265470008128943 0.0036326923728538106 0.9238842914845032
vn -0.38265470008128943 0.0036326923728538106 0.9238842914845032
vn 0 -0.9999922698655663 0.003931947241809279
vn 0 -0.9999922698655663 0.003931947241809279
vn 0 -0.9999922698655663 0.003931947241809279
vn 0 0.9999922698655663 -0.003931947241809279
vn 0 0.9999922698655663 -0.003931947241809279
vn 0 0.9999922698655663 -0.003931947241809279
vn 0.38265470008128943 0.0036326923728538106 0.9238842914845032
vn 0.38265470008128943 0.0036326923728538106 0.9238842914845032
vn 0.38265470008128943 0.0036326923728538106 0.9238842914845032
vn 0.38265470008128943 0.0036326923728538106 0.9238842914845032
vn 0.38265470008128943 0.0036326923728538106 0.9238842914845032
vn 0.38265470008128943 0.0036326923728538106 0.9238842914845032
vn 0 -0.9999922698655663 0.003931947241809279
vn 0 -0.9999922698655663 0.003931947241809279
vn 0 -0.9999922698655663 0.003931947241809279
vn 0 0.9999922698655663 -0.003931947241809279
vn 0 0.9999922698655663 -0.003931947241809279
vn 0 0.9999922698655663 -0.003931947241809279
vn 0.9238914332894846 0.001504578092549983 0.38265174210901615
vn 0.9238914332894846 0.001504578092549983 0.38265174210901615
vn 0.9238914332894846 0.001504578092549983 0.38265174210901615
vn 0.9238914332894846 0.001504578092549983 0.38265174210901615
vn 0.9238914332894846 0.001504578092549983 0.38265174210901615
vn 0.9238914332894846 0.001504578092549983 0.38265174210901615
vn 0 -0.9999922698655663 0.003931947241809279
vn 0 -0.9999922698655663 0.003931947241809279
vn 0 -0.9999922698655663 0.003931947241809279
vn 0 0.9999922698655663 -0.003931947241809279
vn 0 0.9999922698655663 -0.003931947241809279
vn 0 0.9999922698655663 -0.003931947241809279
vn 0.9238914332894846 -0.001504578092549983 -0.38265174210901615
vn 0.9238914332894846 -0.001504578092549983 -0.38265174210901615
vn 0.9238914332894846 -0.001504578092549983 -0.38265174210901615
vn 0.9238914332894846 -0.001504578092549983 -0.38265174210901615
vn 0.9238914332894846 -0.001504578092549983 -0.38265174210901615
vn 0.9238914332894846 -0.001504578092549983 -0.38265174210901615
vn 0 -0.9999922698655663 0.003931947241809279
vn 0 -0.9999922698655663 0.003931947241809279
vn 0 -0.9999922698655663 0.003931947241809279
vn 0 0.9999922698655663 -0.003931947241809279
vn 0 0.9999922698655663 -0.003931947241809279
vn 0 0.9999922698655663 -0.003931947241809279
vn 0.38265470008128943 -0.0036326923728538106 -0.9238842914845032
vn 0.38265470008128943 -0.0036326923728538106 -0.9238842914845032
vn 0.38265470008128943 -0.0036326923728538106 -0.9238842914845032
vn 0.38265470008128943 -0.0036326923728538106 -0.9238842914845032
vn 0.38265470008128943 -0.0036326923728538106 -0.9238842914845032
vn 0.38265470008128943 -0.0036326923728538106 -0.9238842914845032
vn 0 -0.9999922698655663 0.003931947241809279
vn 0 -0.9999922698655663 0.003931947241809279
vn 0 -0.9999922698655663 0.003931947241809279
vn 0 0.9999922698655663 -0.003931947241809279
vn 0 0.9999922698655663 -0.003931947241809279
vn 0 0.9999922698655663 -0.003931947241809279
vn -0.38265470008128943 -0.0036326923728538106 -0.9238842914845032
vn -0.38265470008128943 -0.0036326923728538106 -0.9238842914845032
vn -0.38265470008128943 -0.0036326923728538106 -0.9238842914845032
vn -0.38265470008128943 -0.0036326923728538106 -0.9238842914845032
vn -0.38265470008128943 -0.0036326923728538106 -0.9238842914845032
vn -0.38265470008128943 -0.0036326923728538106 -0.9238842914845032
vn 0 -0.9999922698655663 0.003931947241809279
vn 0 -0.9999922698655663 0.003931947241809279
vn 0 -0.9999922698655663 0.003931947241809279
vn 0 0.9999922698655663 -0.003931947241809279
vn 0 0.9999922698655663 -0.003931947241809279
vn 0 0.9999922698655663 -0.003931947241809279
vn -0.9238914332894846 -0.001504578092549983 -0.38265174210901615
vn -0.9238914332894846 -0.001504578092549983 -0.38265174210901615
vn -0.9238914332894846 -0.001504578092549983 -0.38265174210901615
vn -0.9238914332894846 -0.001504578092549983 -0.38265174210901615
vn -0.9238914332894846 -0.001504578092549983 -0.38265174210901615
vn -0.9238914332894846 -0.001504578092549983 -0.38265174210901615
vn 0 -0.9999922698655663 0.003931947241809279
vn 0 -0.9999922698655663 0.003931947241809279
vn 0 -0.9999922698655663 0.003931947241809279
vn 0 0.9999922698655663 -0.003931947241809279
vn 0 0.9999922698655663 -0.003931947241809279
vn 0 0.9999922698655663 -0.003931947241809279
f 1//1 2//2 3//3
f 4//4 5//5 6//6
f 7//7 8//8 9//9
f 10//10 11//11 12//12
f 13//13 14//14 15//15
f 16//16 17//17 18//18
f 19//19 20//20 21//21
f 22//22 23//23 24//24
f 25//25 26//26 27//27
f 28//28 29//29 30//30
f 31//31 32//32 33//33
f 34//34 35//35 36//36
f 37//37 38//38 39//39
f 40//40 41//41 42//42
f 43//43 44//44 45//45
f 46//46 47//47 48//48
f 49//49 50//50 51//51
f 52//52 53//53 54//54
f 55//55 56//56 57//57
f 58//58 59//59 60//60
f 61//61 62//62 63//63
f 64//64 65//65 66//66
f 67//67 68//68 69//69
f 70//70 71//71 72//72
f 73//73 74//74 75//75
f 76//76 77//77 78//78
f 79//79 80//80 81//81
f 82//82 83//83 84//84
f 85//85 86//86 87//87
f 88//88 89//89 90//90
f 91//91 92//92 93//93
f 94//94 95//95 96//96
f 97//97 98//98 99//99
f 100//100 101//101 102//102
f 103//103 104//104 105//105
f 106//106 107//107 108//108
f 109//109 110//110 111//111
f 112//112 113//113 114//114
f 115//115 116//116 117//117
f 118//118 119//119 120//120
f 121//121 122//122 123//123
f 124//124 125//125 126//126
f 127//127 128//128 129//129
f 130//130 131//131 132//132
f 133//133 134//134 135//135
f 136//136 137//137 138//138
f 139//139 140//140 141//141
f 142//142 143//143 144//144
f 145//145 146//146 147//147
f 148//148 149//149 150//150
f 151//151 152//152 153//153
f 154//154 155//155 156//156
f 157//157 158//158 159//159
f 160//160 161//161 162//162
f 163//163 164//164 165//165
f 166//166 167//167 168//168
f 169//169 170//170 171//171
f 172//172 173//173 174//174
f 175//175 176//176 177//177
f 178//178 179//179 180//180
f 181//181 182//182 183//183
f 184//184 185//185 186//186
f 187//187 188//188 189//189
f 190//190 191//191 192//192
f 193//193 194//194 195//195
f 196//196 197//197 198//198
f 199//199 200//200 201//201
f 202//202 203//203 204//204
f 205//205 206//206 207//207
f 208//208 209//209 210//210
f 211//211 212//212 213//213
f 214//214 215//215 216//216
f 217//217 218//218 219//219
f 220//220 221//221 222//222
f 223//223 224//224 225//225
f 226//226 227//227 228//228
f 229//229 230//230 231//231
f 232//232 233//233 234//234
f 235//235 236//236 237//237
f 238//238 239//239 240//240
f 241//241 242//242 243//243
f 244//244 245//245 246//246
f 247//247 248//248 249//249
f 250//250 251//251 252//252
f 253//253 254//254 255//255
f 256//256 257//257 258//258
f 259//259 260//260 261//261
f 262//262 263//263 264//264
f 265//265 266//266 267//267
f 268//268 269//269 270//270
f 271//271 272//272 273//273
f 274//274 275//275 276//276
f 277//277 278//278 279//279
f 280//280 281//281 282//282
f 283//283 284//284 285//285
f 286//286 287//287 288//288
f 289//289 290//290 291//291
f 292//292 293//293 294//294
f 295//295 296//296 297//297
f 298//298 299//299 300//300
